<svg width="512" height="512" viewBox="0 0 512 512" fill="none" xmlns="http://www.w3.org/2000/svg">
  <rect width="512" height="512" rx="100" fill="#1A1A1A"/>
  
  <!-- Bandeirinhas Centralizadas -->
  <path d="M56 40L106 100L156 40H56Z" fill="#FF3D00"/>
  <path d="M156 40L206 100L256 40H156Z" fill="#FFC107"/>
  <path d="M256 40L306 100L356 40H256Z" fill="#4CAF50"/>
  <path d="M356 40L406 100L456 40H356Z" fill="#2196F3"/>
  
  <!-- Fogueira Centralizada -->
  <path d="M180 420L332 420L256 360L180 420Z" fill="#795548"/> <!-- Troncos -->
  <path d="M200 400L312 400L256 340L200 400Z" fill="#5D4037"/>
  
  <path d="M256 180C256 180 320 280 320 340C320 375.346 291.346 404 256 404C220.654 404 192 375.346 192 340C192 280 256 180 256 180Z" fill="#FF6B00"/>
  <path d="M256 240C256 240 300 310 300 340C300 364.3 280.3 384 256 384C231.7 384 212 364.3 212 340C212 310 256 240 256 240Z" fill="#FFD600"/>
</svg>
